<svg xmlns="http://www.w3.org/2000/svg" width="15" height="26"><switch><g><path d="M14.166-.003H.833A.823.823 0 000 .81v24.375c0 .448.373.811.833.811h13.333c.46 0 .833-.363.833-.811V.81a.823.823 0 00-.833-.813zm-.833 24.375H1.666V1.622h11.666v22.75zm-5.417-3.25h-.833a.824.824 0 00-.833.813c0 .449.373.813.833.813h.833c.46 0 .833-.364.833-.813a.824.824 0 00-.833-.813zM4.583 4.872h5.833c.46 0 .833-.364.833-.812s-.373-.812-.833-.812H4.583c-.46 0-.833.364-.833.812s.372.812.833.812z" fill="#ff5100"/></g></switch></svg>